<?xml version="1.0" encoding="UTF-8" standalone="no"?>
<svg
   version="1.1"
   width="128"
   height="128"
   id="svg3049"
   xmlns:xlink="http://www.w3.org/1999/xlink"
   xmlns="http://www.w3.org/2000/svg"
   xmlns:svg="http://www.w3.org/2000/svg"
   xmlns:rdf="http://www.w3.org/1999/02/22-rdf-syntax-ns#"
   xmlns:cc="http://creativecommons.org/ns#"
   xmlns:dc="http://purl.org/dc/elements/1.1/">
  <defs
     id="defs3051">
    <linearGradient
       id="linearGradient3924">
      <stop
         id="stop3926"
         style="stop-color:#ffffff;stop-opacity:1"
         offset="0" />
      <stop
         id="stop3928"
         style="stop-color:#ffffff;stop-opacity:0.23529412"
         offset="0.06316455" />
      <stop
         id="stop3930"
         style="stop-color:#ffffff;stop-opacity:0.15686275"
         offset="0.95056331" />
      <stop
         id="stop3932"
         style="stop-color:#ffffff;stop-opacity:0.39215687"
         offset="1" />
    </linearGradient>
    <linearGradient
       id="linearGradient3688-166-749-5">
      <stop
         id="stop2883-0"
         style="stop-color:#181818;stop-opacity:1"
         offset="0" />
      <stop
         id="stop2885-5"
         style="stop-color:#181818;stop-opacity:0"
         offset="1" />
    </linearGradient>
    <linearGradient
       id="linearGradient3688-464-309-8">
      <stop
         id="stop2889-9"
         style="stop-color:#181818;stop-opacity:1"
         offset="0" />
      <stop
         id="stop2891-4"
         style="stop-color:#181818;stop-opacity:0"
         offset="1" />
    </linearGradient>
    <linearGradient
       id="linearGradient3702-501-757-0">
      <stop
         id="stop2895-0"
         style="stop-color:#181818;stop-opacity:0"
         offset="0" />
      <stop
         id="stop2897-2"
         style="stop-color:#181818;stop-opacity:1"
         offset="0.5" />
      <stop
         id="stop2899-6"
         style="stop-color:#181818;stop-opacity:0"
         offset="1" />
    </linearGradient>
    <linearGradient
       id="linearGradient3811">
      <stop
         id="stop3813"
         style="stop-color:#000000;stop-opacity:1"
         offset="0" />
      <stop
         id="stop3815"
         style="stop-color:#000000;stop-opacity:0"
         offset="1" />
    </linearGradient>
    <radialGradient
       xlink:href="#linearGradient3688-166-749-5"
       id="radialGradient3946"
       gradientUnits="userSpaceOnUse"
       gradientTransform="matrix(2.003784,0,0,1.4,27.98813,-17.4)"
       cx="4.9929786"
       cy="43.5"
       fx="4.9929786"
       fy="43.5"
       r="2.5" />
    <radialGradient
       xlink:href="#linearGradient3688-464-309-8"
       id="radialGradient3948"
       gradientUnits="userSpaceOnUse"
       gradientTransform="matrix(2.003784,0,0,1.4,-20.01187,-104.4)"
       cx="4.9929786"
       cy="43.5"
       fx="4.9929786"
       fy="43.5"
       r="2.5" />
    <linearGradient
       xlink:href="#linearGradient3702-501-757-0"
       id="linearGradient3950"
       gradientUnits="userSpaceOnUse"
       x1="25.058096"
       y1="47.027729"
       x2="25.058096"
       y2="39.999443" />
    <linearGradient
       xlink:href="#linearGradient3924"
       id="linearGradient3965"
       gradientUnits="userSpaceOnUse"
       gradientTransform="matrix(2.7297298,0,0,2.7297298,-1.5135175,1.488319)"
       x1="23.99999"
       y1="4.999989"
       x2="23.99999"
       y2="43" />
    <radialGradient
       xlink:href="#linearGradient3811"
       id="radialGradient3976"
       gradientUnits="userSpaceOnUse"
       gradientTransform="matrix(1.5563924,0,0,0.16978827,70.270355,102.1321)"
       cx="-4.0287771"
       cy="93.467628"
       fx="-4.0287771"
       fy="93.467628"
       r="35.338131" />
    <linearGradient
       xlink:href="#linearGradient947"
       id="linearGradient856-2-3"
       x1="49.093422"
       y1="16.448902"
       x2="49.093422"
       y2="89.108696"
       gradientUnits="userSpaceOnUse"
       gradientTransform="matrix(1.4102564,0,0,1.4102564,-5.8461734,-7.2564067)" />
    <linearGradient
       id="linearGradient947">
      <stop
         offset="0"
         style="stop-color:#ed5353;stop-opacity:1"
         id="stop943" />
      <stop
         offset="1"
         style="stop-color:#c6262e;stop-opacity:1"
         id="stop945" />
    </linearGradient>
  </defs>
  <metadata
     id="metadata3054">
    <rdf:RDF>
      <cc:Work
         rdf:about="">
        <dc:format>image/svg+xml</dc:format>
        <dc:type
           rdf:resource="http://purl.org/dc/dcmitype/StillImage" />
      </cc:Work>
    </rdf:RDF>
  </metadata>
  <path
     style="opacity:0.2;color:#000000;fill:url(#radialGradient3976);fill-opacity:1;fill-rule:nonzero;stroke:none;stroke-width:1;marker:none;visibility:visible;display:inline;overflow:visible;enable-background:accumulate"
     id="path3041"
     d="m 119,118.00181 a 55,6 0 0 1 -109.9999975,0 55,6 0 1 1 109.9999975,0 z" />
  <g
     style="display:inline"
     id="g2036"
     transform="matrix(2.6999989,0,0,0.55555607,-0.8000075,94.890689)">
    <g
       style="opacity:0.4"
       id="g3712"
       transform="matrix(1.052632,0,0,1.285713,-1.263158,-13.42854)">
      <rect
         style="fill:url(#radialGradient3946);fill-opacity:1;stroke:none"
         id="rect2801"
         y="40"
         x="38"
         height="7"
         width="5" />
      <rect
         style="fill:url(#radialGradient3948);fill-opacity:1;stroke:none"
         id="rect3696"
         transform="scale(-1,-1)"
         y="-47"
         x="-10"
         height="7"
         width="5" />
      <rect
         style="fill:url(#linearGradient3950);fill-opacity:1;stroke:none"
         id="rect3700"
         y="40"
         x="10"
         height="7.0000005"
         width="28" />
    </g>
  </g>
  <rect
     style="color:#000000;display:inline;overflow:visible;visibility:visible;fill:url(#linearGradient856-2-3);fill-opacity:1.0;fill-rule:nonzero;stroke:none;stroke-width:1;marker:none;enable-background:accumulate;font-variation-settings:normal;opacity:1;vector-effect:none;stroke-linecap:butt;stroke-linejoin:miter;stroke-miterlimit:4;stroke-dasharray:none;stroke-dashoffset:0;stroke-opacity:0.5;stop-color:#000000;stop-opacity:1"
     id="rect5505-21-3"
     y="15.501808"
     x="12.499989"
     ry="10"
     rx="10"
     height="103"
     width="103" />
  <rect
     style="color:#000000;display:inline;overflow:visible;visibility:visible;opacity:0.5;fill:none;stroke:none;stroke-width:1;stroke-linecap:round;stroke-linejoin:round;stroke-miterlimit:4;stroke-dasharray:none;stroke-dashoffset:0;stroke-opacity:1;marker:none;enable-background:accumulate"
     id="rect5505-21-3-1"
     y="15.501808"
     x="12.499989"
     ry="10"
     rx="10"
     height="103"
     width="103" />
  <path
     id="path61-9"
     style="fill:#a10705;stroke-width:0.843237;marker:none;font-variation-settings:normal;opacity:0.3;vector-effect:none;fill-opacity:1;stroke:none;stroke-linecap:butt;stroke-linejoin:miter;stroke-miterlimit:4;stroke-dasharray:none;stroke-dashoffset:0;stroke-opacity:1;-inkscape-stroke:none;stop-color:#000000;stop-opacity:1"
     d="m 63.416016,38.011387 c -3.651566,-0.115723 -7.341795,0.658593 -10.775391,1.957031 -5.506254,2.090627 -10.543355,5.578901 -14.083984,10.285156 -3.543753,4.709377 -5.51875,10.662107 -5.0625,16.53711 0.299999,3.806252 1.601952,7.514842 3.611328,10.761718 1.990829,3.220007 4.667831,5.994058 7.716797,8.236328 A 146.32198,146.32198 0 0 1 21.013672,97.995762 131.08447,131.08447 0 0 0 47.248047,87.417637 c 5.693657,3.482008 12.326167,5.339262 18.970703,6.191406 C 83.375604,95.80338 101.28663,91.417669 115.5,81.562168 V 65.360996 C 104.33961,77.58491 88.529227,85.459552 72.046875,86.989902 65.369179,87.60891 58.429992,87.177421 52.28125,84.556309 a 131.08447,131.08447 0 0 0 13.5,-9.03711 c 4.503127,-3.481253 8.868358,-7.367183 11.615234,-12.351562 1.375002,-2.493751 2.316795,-5.243748 2.576172,-8.078125 0.256248,-2.834378 -0.194139,-5.75195 -1.46289,-8.298828 a 14.96251,14.96251 0 0 0 -4.765625,-5.484375 17.984387,17.984387 0 0 0 -6.701172,-2.869141 c -1.197658,-0.25 -2.409765,-0.387207 -3.626953,-0.425781 z m -1.408204,5.300781 c 0.72046,-0.0067 1.441016,0.03281 2.158204,0.125 2.865626,0.368751 5.678125,1.647265 7.546875,3.853516 1.512502,1.787501 2.342579,4.101952 2.486328,6.439453 0.146887,2.3375 -0.365624,4.691796 -1.296875,6.841797 -1.859375,4.296877 -5.290232,7.699998 -8.78711,10.8125 A 146.32198,146.32198 0 0 1 49.169922,82.985996 c -2.503511,-1.465028 -4.772121,-3.335368 -6.585938,-5.595703 -2.250003,-2.796877 -3.793751,-6.187497 -4.234375,-9.75 -0.643751,-5.196878 1.119137,-10.561715 4.369141,-14.667969 3.250001,-4.106252 7.896479,-6.996873 12.896484,-8.5625 2.069534,-0.644531 4.2312,-1.077588 6.392578,-1.097656 z" />
  <path
     id="path61-9-1"
     style="font-variation-settings:normal;opacity:0.15;vector-effect:none;fill:#a10705;fill-opacity:1;stroke:none;stroke-width:0.843237;stroke-linecap:butt;stroke-linejoin:miter;stroke-miterlimit:4;stroke-dasharray:none;stroke-dashoffset:0;stroke-opacity:1;-inkscape-stroke:none;marker:none;stop-color:#000000;stop-opacity:1"
     d="M 62.017578 36.96875 C 58.678278 37.060415 55.365889 37.82397 52.271484 38.994141 C 46.602752 41.146458 41.401996 44.738918 37.724609 49.626953 C 34.039005 54.52484 31.976643 60.710419 32.455078 66.871094 A 1.0423671 1.0423671 0 0 0 32.455078 66.873047 C 32.76947 70.861909 34.128501 74.724007 36.21875 78.101562 C 38.288547 81.449294 41.060157 84.316069 44.205078 86.628906 A 1.0423671 1.0423671 0 0 0 45.380859 86.669922 C 53.176023 81.72475 36.844636 92.019626 44.667969 87.119141 C 52.491302 82.218655 36.099926 92.420092 43.951172 87.564453 C 51.010389 83.198648 40.188852 89.853433 43.304688 87.960938 C 42.548327 88.404374 41.496918 89.026952 40.378906 89.689453 C 39.250492 90.328735 38.137417 90.963342 37.34375 91.417969 C 41.768496 88.979593 29.12063 95.877044 36.65625 91.792969 C 44.772343 87.394295 27.772934 96.543567 35.914062 92.191406 C 44.055192 87.839246 27.004022 96.893395 35.169922 92.587891 C 43.335822 88.282386 26.231472 97.237223 34.421875 92.978516 C 42.612278 88.719808 25.45919 97.577005 33.673828 93.365234 C 41.888466 89.153463 24.683271 97.912744 32.921875 93.748047 C 41.160479 89.58335 23.905669 98.244439 32.167969 94.126953 C 40.430269 90.009467 23.126384 98.570141 31.412109 94.5 C 39.697835 90.429859 22.345417 98.891802 30.654297 94.869141 C 38.963177 90.846479 21.562769 99.209426 29.894531 95.234375 C 38.226293 91.259324 20.778442 99.523014 29.132812 95.595703 C 37.487184 91.668393 19.99048 99.832566 28.367188 95.953125 C 36.743895 92.073684 19.202793 100.13613 27.601562 96.304688 C 26.951669 96.58746 26.231142 96.90134 25.210938 97.349609 C 24.734912 97.555261 24.559852 97.630942 24.109375 97.826172 C 22.34277 98.563777 20.962977 99.143054 21.429688 98.955078 C 30.362742 96.422652 39.017225 92.923643 47.222656 88.578125 C 52.966001 91.966786 59.530632 93.801878 66.085938 94.642578 C 83.271538 96.840592 101.16509 92.533768 115.5 82.810547 L 115.5 64.363281 A 1.0423671 1.0423671 0 0 0 114.73047 64.658203 C 103.75028 76.684746 88.166894 84.447531 71.951172 85.953125 C 66.106979 86.494869 60.136403 86.117586 54.708984 84.267578 C 58.740153 81.824283 62.666926 79.207551 66.414062 76.347656 A 1.0423671 1.0423671 0 0 0 66.417969 76.34375 C 70.960163 72.832295 75.446953 68.864503 78.308594 63.671875 C 79.742867 61.070627 80.735099 58.187007 81.009766 55.185547 A 1.0423671 1.0423671 0 0 0 81.009766 55.183594 C 81.281649 52.176267 80.809868 49.069288 79.443359 46.326172 A 1.0423671 1.0423671 0 0 0 79.439453 46.318359 C 78.254031 43.985532 76.486361 41.952511 74.341797 40.453125 A 1.0423671 1.0423671 0 0 0 74.339844 40.451172 C 72.217744 38.97236 69.790432 37.933843 67.255859 37.417969 C 65.995177 37.154813 64.722719 37.011062 63.449219 36.970703 C 62.971606 36.955567 62.494621 36.955655 62.017578 36.96875 z M 62.017578 44.355469 C 62.693477 44.349183 63.366223 44.384967 64.033203 44.470703 C 66.681985 44.81155 69.254211 46.000607 70.917969 47.964844 C 72.26537 49.557226 73.026955 51.660705 73.158203 53.794922 C 73.292826 55.937254 72.821702 58.134862 71.945312 60.158203 C 70.191862 64.210296 66.889819 67.518721 63.421875 70.605469 A 1.0424477 1.0424477 0 0 0 64.806641 72.164062 C 71.778455 65.989876 57.362652 78.704539 64.359375 72.558594 C 71.356098 66.412648 56.888639 79.068776 63.910156 72.951172 C 70.931673 66.833568 56.414741 79.430959 63.460938 73.341797 C 70.507133 67.252634 55.939006 79.79109 63.009766 73.730469 C 70.080526 67.669847 55.461432 80.149168 62.556641 74.117188 C 69.651849 68.085206 54.982022 80.505195 62.101562 74.501953 C 69.221103 68.498711 54.500774 80.861124 61.644531 74.886719 C 68.788288 68.912314 54.019644 81.213049 61.1875 75.267578 C 68.355356 69.322108 53.536678 81.562923 60.728516 75.646484 C 67.920354 69.730046 53.051876 81.910747 60.267578 76.023438 C 67.48328 70.136128 52.565238 82.258476 59.804688 76.400391 C 67.044135 70.542306 52.076767 82.602201 59.339844 76.773438 C 66.602921 70.944672 51.588414 82.945833 58.875 77.146484 C 66.161586 71.347136 51.098227 83.285463 58.408203 77.515625 C 65.718179 71.745787 50.606206 83.624998 57.939453 77.884766 C 65.2727 72.144533 50.112352 83.960533 57.46875 78.25 C 64.825148 72.539467 49.618619 84.295975 56.998047 78.615234 C 64.377475 72.934493 49.123053 84.629371 56.525391 78.978516 C 63.927729 73.32766 48.625655 84.958769 56.050781 79.337891 C 63.475908 73.717012 48.126425 85.288074 55.574219 79.697266 C 63.022013 74.106457 47.627317 85.613382 55.097656 80.052734 C 62.567996 74.492087 47.126377 85.938599 54.619141 80.408203 C 62.111904 74.877807 46.623608 86.261772 54.138672 80.761719 C 61.653736 75.261665 46.119008 86.582903 53.65625 81.113281 C 61.193492 75.64366 45.614531 86.900037 53.173828 81.460938 C 60.733125 76.021838 45.108225 87.217083 52.689453 81.808594 C 60.270682 76.400105 44.600089 87.532087 52.203125 82.154297 C 59.806161 76.776507 44.092078 87.843097 51.716797 82.496094 C 59.341516 77.149091 43.582239 88.154019 51.228516 82.837891 C 58.874793 77.521762 43.070571 88.462902 50.738281 83.177734 C 58.405992 77.892567 42.559029 88.767792 50.248047 83.513672 C 57.937065 78.259552 42.043706 89.072596 49.753906 83.849609 A 1.0423671 1.0423671 0 0 0 49.697266 82.085938 C 47.290607 80.677586 45.12045 78.886646 43.396484 76.738281 C 41.258407 74.080534 39.798876 70.859856 39.384766 67.511719 C 38.780311 62.63207 40.445493 57.52281 43.535156 53.619141 C 46.632864 49.705306 51.099175 46.915628 55.925781 45.404297 L 55.925781 45.40625 C 57.925134 44.783576 59.98895 44.374304 62.017578 44.355469 z M 22.962891 98.324219 C 31.48823 94.783331 13.638133 102.13853 22.183594 98.646484 C 25.195088 97.415857 23.148339 98.258179 21.908203 98.757812 C 22.271107 98.608363 21.976738 98.733805 22.962891 98.324219 z " />
  <path
     id="path61"
     style="stroke-width:3.12501;marker:none;fill:#ffffff"
     d="M 63.416016 37.011719 C 59.76445 36.895996 56.074221 37.670312 52.640625 38.96875 C 47.134371 41.059377 42.09727 44.547651 38.556641 49.253906 C 35.012888 53.963283 33.037891 59.916013 33.494141 65.791016 C 33.79414 69.597268 35.096093 73.305858 37.105469 76.552734 C 39.096298 79.772741 41.7733 82.546792 44.822266 84.789062 A 146.32198 146.32198 0 0 1 21.013672 96.996094 A 131.08447 131.08447 0 0 0 47.248047 86.417969 C 52.941704 89.899977 59.574214 91.757231 66.21875 92.609375 C 83.375604 94.803712 101.28663 90.418001 115.5 80.5625 L 115.5 64.361328 C 104.33961 76.585242 88.529227 84.459884 72.046875 85.990234 C 65.369179 86.609242 58.429992 86.177753 52.28125 83.556641 A 131.08447 131.08447 0 0 0 65.78125 74.519531 C 70.284377 71.038278 74.649608 67.152348 77.396484 62.167969 C 78.771486 59.674218 79.713279 56.924221 79.972656 54.089844 C 80.228904 51.255466 79.778517 48.337894 78.509766 45.791016 A 14.96251 14.96251 0 0 0 73.744141 40.306641 A 17.984387 17.984387 0 0 0 67.042969 37.4375 C 65.845311 37.1875 64.633204 37.050293 63.416016 37.011719 z M 62.007812 42.3125 C 62.728272 42.305811 63.448828 42.345312 64.166016 42.4375 C 67.031642 42.806251 69.844141 44.084765 71.712891 46.291016 C 73.225393 48.078517 74.05547 50.392968 74.199219 52.730469 C 74.346106 55.067969 73.833595 57.422265 72.902344 59.572266 C 71.042969 63.869143 67.612112 67.272264 64.115234 70.384766 A 146.32198 146.32198 0 0 1 49.169922 81.986328 C 46.666411 80.5213 44.397801 78.65096 42.583984 76.390625 C 40.333981 73.593748 38.790233 70.203128 38.349609 66.640625 C 37.705858 61.443747 39.468746 56.07891 42.71875 51.972656 C 45.968751 47.866404 50.615229 44.975783 55.615234 43.410156 C 57.684768 42.765625 59.846434 42.332568 62.007812 42.3125 z " />
  <path
     id="path61-93"
     style="fill:#a10705;stroke-width:0.843237;marker:none;font-variation-settings:normal;opacity:0.15;vector-effect:none;fill-opacity:1;stroke:none;stroke-linecap:butt;stroke-linejoin:miter;stroke-miterlimit:4;stroke-dasharray:none;stroke-dashoffset:0;stroke-opacity:1;-inkscape-stroke:none;stop-color:#000000;stop-opacity:1"
     d="M 62.007812 41.3125 C 59.846434 41.332568 57.684768 41.765625 55.615234 42.410156 C 50.615229 43.975783 45.968751 46.866404 42.71875 50.972656 C 39.793434 54.66868 38.089267 59.383044 38.244141 64.078125 C 38.345201 59.719543 40.001739 55.405494 42.71875 51.972656 C 45.968751 47.866404 50.615229 44.975783 55.615234 43.410156 C 57.684768 42.765625 59.846434 42.332568 62.007812 42.3125 C 62.728273 42.3058 63.448828 42.34531 64.166016 42.4375 C 67.031642 42.806251 69.844141 44.084765 71.712891 46.291016 C 73.225393 48.078517 74.05547 50.392968 74.199219 52.730469 C 74.205393 52.828725 74.203169 52.927091 74.207031 53.025391 C 74.223379 52.593868 74.226351 52.162238 74.199219 51.730469 C 74.05547 49.392968 73.225393 47.078517 71.712891 45.291016 C 69.844141 43.084765 67.031642 41.806251 64.166016 41.4375 C 63.448828 41.34531 62.728273 41.3058 62.007812 41.3125 z M 80.03125 52.082031 C 80.020885 52.418426 80.002926 52.755023 79.972656 53.089844 C 79.713279 55.924221 78.771486 58.674218 77.396484 61.167969 C 74.649608 66.152348 70.284377 70.038278 65.78125 73.519531 A 131.08447 131.08447 0 0 1 52.28125 82.556641 C 52.609132 82.696411 52.947079 82.806103 53.279297 82.933594 A 131.08447 131.08447 0 0 0 65.78125 74.519531 C 70.284377 71.038278 74.649608 67.152348 77.396484 62.167969 C 78.771486 59.674218 79.713279 56.924221 79.972656 54.089844 C 80.032912 53.42335 80.050592 52.751824 80.03125 52.082031 z M 33.4375 63.5625 C 33.419271 64.304539 33.4365 65.048794 33.494141 65.791016 C 33.79414 69.597268 35.096093 73.305858 37.105469 76.552734 C 38.933889 79.510059 41.345312 82.086099 44.087891 84.224609 A 146.32198 146.32198 0 0 0 44.822266 83.789062 C 41.7733 81.546792 39.096298 78.772741 37.105469 75.552734 C 35.096093 72.305858 33.79414 68.597268 33.494141 64.791016 C 33.462344 64.381585 33.445972 63.972238 33.4375 63.5625 z M 115.5 79.5625 C 101.28663 89.418001 83.375604 93.803712 66.21875 91.609375 C 59.574214 90.757231 52.941704 88.899977 47.248047 85.417969 A 131.08447 131.08447 0 0 1 29.451172 93.28125 A 146.32198 146.32198 0 0 1 21.013672 96.996094 A 131.08447 131.08447 0 0 0 47.248047 86.417969 C 52.941704 89.899977 59.574214 91.757231 66.21875 92.609375 C 83.375604 94.803712 101.28663 90.418001 115.5 80.5625 L 115.5 79.5625 z " />
  <rect
     style="opacity:0.35;fill:none;stroke:url(#linearGradient3965);stroke-width:1;stroke-linecap:round;stroke-linejoin:round;stroke-miterlimit:4;stroke-dasharray:none;stroke-dashoffset:0;stroke-opacity:1"
     id="rect6741-7"
     y="16.501808"
     x="13.499989"
     ry="9"
     rx="9"
     height="101"
     width="101" />
  <rect
     style="color:#000000;font-variation-settings:normal;display:inline;overflow:visible;visibility:visible;vector-effect:none;fill:none;fill-opacity:1;fill-rule:nonzero;stroke:#a10705;stroke-width:1;stroke-linecap:butt;stroke-linejoin:miter;stroke-miterlimit:4;stroke-dasharray:none;stroke-dashoffset:0;stroke-opacity:0.5;marker:none;enable-background:accumulate;stop-color:#000000;opacity:1;-inkscape-stroke:none;stop-opacity:1"
     id="rect5505-21-3-5"
     y="15.501808"
     x="12.499989"
     ry="10"
     rx="10"
     height="103"
     width="103" />
</svg>
