<?xml version="1.0" encoding="UTF-8" standalone="no"?>
<svg
   version="1.1"
   width="16"
   height="16"
   id="svg7357"
   xmlns:xlink="http://www.w3.org/1999/xlink"
   xmlns="http://www.w3.org/2000/svg"
   xmlns:svg="http://www.w3.org/2000/svg"
   xmlns:rdf="http://www.w3.org/1999/02/22-rdf-syntax-ns#"
   xmlns:cc="http://creativecommons.org/ns#"
   xmlns:dc="http://purl.org/dc/elements/1.1/">
  <defs
     id="defs7359">
    <linearGradient
       x1="23.99999"
       y1="7.1818099"
       x2="23.99999"
       y2="40.818172"
       id="linearGradient4224"
       xlink:href="#linearGradient3924-4-8"
       gradientUnits="userSpaceOnUse"
       gradientTransform="matrix(0.2972973,0,0,0.2972973,0.86486973,0.86486734)" />
    <linearGradient
       id="linearGradient3924-4-8">
      <stop
         id="stop3926-0-4"
         style="stop-color:#ffffff;stop-opacity:1"
         offset="0" />
      <stop
         id="stop3928-6-8"
         style="stop-color:#ffffff;stop-opacity:0.23529412"
         offset="0" />
      <stop
         id="stop3930-2-1"
         style="stop-color:#ffffff;stop-opacity:0.15686275"
         offset="1" />
      <stop
         id="stop3932-9-0"
         style="stop-color:#ffffff;stop-opacity:0.39215687"
         offset="1" />
    </linearGradient>
    <linearGradient
       xlink:href="#linearGradient947"
       id="linearGradient856-2"
       x1="14.970034"
       y1="6.9704485"
       x2="14.970034"
       y2="25.663843"
       gradientUnits="userSpaceOnUse"
       gradientTransform="matrix(0.69230783,0,0,0.69230789,-2.6153969,-3.3076902)" />
    <linearGradient
       id="linearGradient947">
      <stop
         offset="0"
         style="stop-color:#ed5353;stop-opacity:1"
         id="stop943" />
      <stop
         offset="1"
         style="stop-color:#c6262e;stop-opacity:1"
         id="stop945" />
    </linearGradient>
  </defs>
  <metadata
     id="metadata7362">
    <rdf:RDF>
      <cc:Work
         rdf:about="">
        <dc:format>image/svg+xml</dc:format>
        <dc:type
           rdf:resource="http://purl.org/dc/dcmitype/StillImage" />
      </cc:Work>
    </rdf:RDF>
  </metadata>
  <rect
     style="color:#000000;display:inline;overflow:visible;visibility:visible;opacity:1;fill:url(#linearGradient856-2);fill-opacity:1.0;fill-rule:nonzero;stroke:none;stroke-width:0.999998;marker:none;enable-background:accumulate;font-variation-settings:normal;vector-effect:none;stroke-linecap:butt;stroke-linejoin:miter;stroke-miterlimit:4;stroke-dasharray:none;stroke-dashoffset:0;stroke-opacity:0.5;stop-color:#000000;stop-opacity:1"
     id="rect5505-21-2"
     y="1.4999971"
     x="1.5"
     ry="2"
     rx="2"
     height="13.000003"
     width="13.000003" />
  <path
     id="path61-6-2"
     style="font-variation-settings:normal;opacity:0.15;vector-effect:none;fill:#a10705;fill-opacity:1;stroke:none;stroke-width:0.843237;stroke-linecap:butt;stroke-linejoin:miter;stroke-miterlimit:4;stroke-dasharray:none;stroke-dashoffset:0;stroke-opacity:1;-inkscape-stroke:none;marker:none;stop-color:#000000;stop-opacity:1"
     d="M 7.4453125 3.9667969 C 6.8810691 3.9815599 6.3450845 4.1070785 5.8535156 4.2929688 A 1.0353053 1.0353053 0 0 0 5.8515625 4.2929688 C 4.955952 4.6330161 4.1212844 5.202118 3.5136719 6.0097656 C 2.9005694 6.8245319 2.551844 7.8502082 2.6347656 8.9179688 A 1.0353053 1.0353053 0 0 0 2.6347656 8.9199219 C 2.6891524 9.6099539 2.9196441 10.256146 3.2675781 10.818359 C 3.6107397 11.373395 4.0605303 11.835735 4.5625 12.205078 A 1.0353053 1.0353053 0 0 0 5.5 12.347656 C 5.4140899 12.401186 5.3646311 12.432632 5.2851562 12.482422 L 4.9609375 12.472656 C 5.0309882 12.515474 5.1099473 12.515222 5.1835938 12.542969 C 4.9021501 12.698177 4.7727092 12.769357 4.46875 12.939453 C 4.2989394 13.028754 4.2428198 13.059086 4.0742188 13.148438 C 3.8991978 13.235285 3.8407563 13.264144 3.6660156 13.351562 C 3.4586907 13.448662 3.3867814 13.483036 3.1816406 13.580078 C 2.7745985 13.760697 2.4264543 13.916422 2.1992188 14.021484 C 2.2037698 14.025377 2.2083041 14.029351 2.2128906 14.033203 C 2.2550157 14.015785 2.3374434 13.98099 2.3945312 13.957031 C 2.351869 13.977868 2.2514119 14.025675 2.2207031 14.041016 C 2.2242832 14.043989 2.2288207 14.04588 2.2324219 14.048828 C 2.3208378 14.010039 2.5749101 13.89562 2.7460938 13.818359 C 2.5195105 13.936346 2.5326628 13.934008 2.96875 13.726562 C 2.9914705 13.719189 3.014416 13.712528 3.0371094 13.705078 C 2.9254025 13.768137 2.9182683 13.775249 3.1191406 13.675781 C 3.957048 13.396859 4.7773586 13.069199 5.5664062 12.671875 C 6.3290141 13.030729 7.1148881 13.340919 7.8984375 13.441406 C 10.178518 13.733026 12.519915 13.246087 14.5 12.09375 L 14.5 7.7324219 A 1.0353053 1.0353053 0 0 0 13.748047 8.0410156 C 12.504468 9.3583091 10.764837 10.195919 8.96875 10.427734 C 9.4911705 9.9933107 10.041529 9.5527185 10.425781 8.8554688 C 10.667397 8.4172657 10.844705 7.9175381 10.894531 7.3730469 C 10.94429 6.8227263 10.860159 6.2457149 10.59375 5.7109375 A 1.0353053 1.0353053 0 0 0 10.589844 5.703125 C 10.365521 5.2619847 10.032483 4.8774242 9.6269531 4.59375 A 1.0353053 1.0353053 0 0 0 9.625 4.5917969 C 9.241378 4.3244365 8.8020209 4.1378474 8.34375 4.0449219 C 8.1238741 3.999397 7.905373 3.9736397 7.6894531 3.9667969 C 7.6077725 3.9642083 7.5259187 3.9646879 7.4453125 3.9667969 z M 7.4765625 6.7441406 C 7.5358013 6.7435906 7.5858561 6.7471713 7.6230469 6.7519531 C 7.7898968 6.7734236 7.9268454 6.8541187 7.9726562 6.9082031 C 8.009973 6.953182 8.0539224 7.0543895 8.0605469 7.1621094 C 8.0678258 7.2779425 8.0411597 7.434992 7.9707031 7.5976562 A 1.0353053 1.0353053 0 0 0 7.9707031 7.5996094 C 7.8281438 7.9290533 7.4983627 8.2880429 7.0605469 8.6777344 A 1.0353053 1.0353053 0 0 0 7.5585938 10.429688 C 7.2037725 10.415128 6.8635374 10.375445 6.578125 10.253906 L 6.5917969 10.472656 A 1.0353053 1.0353053 0 0 0 6.2792969 10.105469 C 6.0411844 9.9660921 5.8353029 9.7925719 5.6835938 9.6035156 C 5.4952953 9.3694503 5.3722997 9.0866285 5.3398438 8.8242188 C 5.2932031 8.447697 5.4339687 7.9861434 5.7089844 7.6386719 C 5.9910353 7.2823113 6.4286676 6.9987972 6.9238281 6.84375 C 7.1308729 6.7792684 7.3205588 6.7455891 7.4765625 6.7441406 z M 8.3242188 10.287109 C 8.2520861 10.35016 8.219128 10.379194 8.1503906 10.439453 C 8.0720553 10.439735 7.9942686 10.437783 7.9160156 10.4375 A 1.0353053 1.0353053 0 0 0 8.3242188 10.287109 z M 6.6523438 11.431641 L 6.6621094 11.595703 C 6.5667008 11.66132 6.5368212 11.680876 6.4394531 11.748047 A 1.0353053 1.0353053 0 0 0 6.6523438 11.431641 z " />
  <path
     id="path61-6"
     style="fill:#a10705;stroke-width:0.843237;marker:none;font-variation-settings:normal;opacity:0.3;vector-effect:none;fill-opacity:1;stroke:none;stroke-linecap:butt;stroke-linejoin:miter;stroke-miterlimit:4;stroke-dasharray:none;stroke-dashoffset:0;stroke-opacity:1;-inkscape-stroke:none;stop-color:#000000;stop-opacity:1"
     d="M 7.65625,5.001533 C 7.1693746,4.9861033 6.6765627,5.0881736 6.21875,5.2612987 5.4845827,5.5400489 4.8138806,6.0048917 4.3417969,6.6323924 3.8692963,7.2603095 3.6051824,8.0541367 3.6660156,8.8374705 c 0.04,0.5075002 0.2145051,1.0026301 0.4824219,1.4355465 0.2652612,0.429039 0.6211639,0.798795 1.0273437,1.097657 A 19.509597,19.509597 0 0 1 2,12.99958 17.477929,17.477929 0 0 0 5.5,11.589424 c 0.7589383,0.463887 1.6437347,0.710648 2.5292969,0.824218 C 10.277075,12.701129 12.621161,12.14078 14.5,10.87458 V 8.751533 c -1.481804,1.56964 -3.543468,2.579684 -5.6933594,2.779297 -0.8898711,0.08249 -1.8152674,0.02475 -2.6347656,-0.324219 A 17.477929,17.477929 0 0 0 7.9707031,10.001533 C 8.5711201,9.537366 9.1532806,9.0196326 9.5195312,8.3550487 9.7028642,8.0225486 9.8286983,7.6567938 9.8632812,7.2788768 9.8974512,6.9009598 9.8371388,6.5110386 9.6679688,6.1714549 A 1.9950014,1.9950014 0 0 0 9.0332031,5.4409861 2.3979184,2.3979184 0 0 0 8.1386719,5.0581737 C 7.9789843,5.0248403 7.8185418,5.0066763 7.65625,5.001533 Z M 7.4667969,5.7085643 c 0.096061,-8.919e-4 0.1934374,0.00333 0.2890625,0.015625 C 8.1379429,5.7733563 8.512552,5.9436945 8.7617188,6.2378611 8.9633855,6.4761947 9.0745835,6.7855694 9.09375,7.0972361 9.113335,7.4089029 9.044089,7.7226787 8.9199219,8.0093455 8.6720052,8.5822625 8.2142971,9.0357515 7.7480469,9.4507518 A 19.509597,19.509597 0 0 1 5.7558594,10.997627 C 5.4221927,10.802319 5.1187135,10.552809 4.8769531,10.251533 4.5769528,9.878616 4.3712501,9.4257522 4.3125,8.9507518 4.2266666,8.2578347 4.4631506,7.543174 4.8964844,6.9956737 5.3298179,6.4481734 5.9485672,6.063799 6.6152344,5.8550487 6.8911721,5.7691113 7.1786131,5.71124 7.4667969,5.7085643 Z" />
  <path
     id="path61"
     style="stroke-width:0.416667;marker:none;fill:#ffffff"
     d="M 7.65625 4.0019531 C 7.1693746 3.9865234 6.6765627 4.0885937 6.21875 4.2617188 C 5.4845827 4.540469 4.8138806 5.0053118 4.3417969 5.6328125 C 3.8692963 6.2607296 3.6051824 7.0545568 3.6660156 7.8378906 C 3.7060156 8.3453908 3.8805207 8.8405207 4.1484375 9.2734375 C 4.4136987 9.7024757 4.7696014 10.072232 5.1757812 10.371094 A 19.509597 19.509597 0 0 1 2 12 A 17.477929 17.477929 0 0 0 5.5 10.589844 C 6.2589383 11.053731 7.1437347 11.300492 8.0292969 11.414062 C 10.277075 11.701549 12.621161 11.1412 14.5 9.875 L 14.5 7.7519531 C 13.018196 9.321593 10.956532 10.331637 8.8066406 10.53125 C 7.9167695 10.613739 6.9913732 10.556001 6.171875 10.207031 A 17.477929 17.477929 0 0 0 7.9707031 9.0019531 C 8.5711201 8.5377861 9.1532806 8.0200527 9.5195312 7.3554688 C 9.7028642 7.0229687 9.8286983 6.6572139 9.8632812 6.2792969 C 9.8974512 5.9013799 9.8371388 5.5114587 9.6679688 5.171875 A 1.9950014 1.9950014 0 0 0 9.0332031 4.4414062 A 2.3979184 2.3979184 0 0 0 8.1386719 4.0585938 C 7.9789843 4.0252604 7.8185418 4.0070964 7.65625 4.0019531 z M 7.4667969 4.7089844 C 7.5628581 4.7080925 7.6602343 4.7123177 7.7558594 4.7246094 C 8.1379429 4.7737762 8.512552 4.9441146 8.7617188 5.2382812 C 8.9633855 5.4766148 9.0745835 5.7859895 9.09375 6.0976562 C 9.1133353 6.409323 9.0440886 6.7230988 8.9199219 7.0097656 C 8.6720052 7.5826826 8.2142971 8.0361716 7.7480469 8.4511719 A 19.509597 19.509597 0 0 1 5.7558594 9.9980469 C 5.4221927 9.8027387 5.1187135 9.5532288 4.8769531 9.2519531 C 4.5769528 8.8790361 4.3712501 8.4261723 4.3125 7.9511719 C 4.2266666 7.2582548 4.4631506 6.5435941 4.8964844 5.9960938 C 5.3298179 5.4485935 5.9485672 5.0642191 6.6152344 4.8554688 C 6.8911721 4.7695314 7.1786131 4.7116601 7.4667969 4.7089844 z " />
  <rect
     style="color:#000000;font-variation-settings:normal;display:inline;overflow:visible;visibility:visible;vector-effect:none;fill:none;fill-opacity:1;fill-rule:nonzero;stroke:#a62100;stroke-width:0.999998;stroke-linecap:butt;stroke-linejoin:miter;stroke-miterlimit:4;stroke-dasharray:none;stroke-dashoffset:0;stroke-opacity:0.5;marker:none;enable-background:accumulate;stop-color:#000000"
     id="rect5505-21-2-7"
     y="1.4999971"
     x="1.5"
     ry="2"
     rx="2"
     height="13.000003"
     width="13.000003" />
  <rect
     style="opacity:0.35;fill:none;stroke:url(#linearGradient4224);stroke-width:1;stroke-linecap:round;stroke-linejoin:round;stroke-miterlimit:4;stroke-dasharray:none;stroke-dashoffset:0;stroke-opacity:1"
     id="rect6741-0-3"
     y="2.4999971"
     x="2.5"
     height="11"
     width="11"
     rx="1"
     ry="1" />
</svg>
