<?xml version="1.0" encoding="UTF-8" standalone="no"?>
<svg
   version="1.1"
   width="48"
   height="48"
   id="svg6649"
   xmlns:xlink="http://www.w3.org/1999/xlink"
   xmlns="http://www.w3.org/2000/svg"
   xmlns:svg="http://www.w3.org/2000/svg"
   xmlns:rdf="http://www.w3.org/1999/02/22-rdf-syntax-ns#"
   xmlns:cc="http://creativecommons.org/ns#"
   xmlns:dc="http://purl.org/dc/elements/1.1/">
  <defs
     id="defs6651">
    <linearGradient
       id="linearGradient1201">
      <stop
         id="stop1193"
         style="stop-color:#ffffff;stop-opacity:1"
         offset="0" />
      <stop
         id="stop1195"
         style="stop-color:#ffffff;stop-opacity:0.23529412"
         offset="0.06781636" />
      <stop
         id="stop1197"
         style="stop-color:#ffffff;stop-opacity:0.15686275"
         offset="0.94694352" />
      <stop
         id="stop1199"
         style="stop-color:#ffffff;stop-opacity:0.39215687"
         offset="1" />
    </linearGradient>
    <linearGradient
       id="linearGradient3688-166-749">
      <stop
         id="stop2883"
         style="stop-color:#181818;stop-opacity:1"
         offset="0" />
      <stop
         id="stop2885"
         style="stop-color:#181818;stop-opacity:0"
         offset="1" />
    </linearGradient>
    <linearGradient
       id="linearGradient3702-501-757">
      <stop
         id="stop2895"
         style="stop-color:#181818;stop-opacity:0"
         offset="0" />
      <stop
         id="stop2897"
         style="stop-color:#181818;stop-opacity:1"
         offset="0.5" />
      <stop
         id="stop2899"
         style="stop-color:#181818;stop-opacity:0"
         offset="1" />
    </linearGradient>
    <radialGradient
       cx="4.9929786"
       cy="43.5"
       r="2.5"
       fx="4.9929786"
       fy="43.5"
       id="radialGradient3013-6"
       xlink:href="#linearGradient3688-166-749"
       gradientUnits="userSpaceOnUse"
       gradientTransform="matrix(2.003784,0,0,0.89999994,29.98813,4.8500025)" />
    <radialGradient
       cx="4.9929786"
       cy="43.5"
       r="2.5"
       fx="4.9929786"
       fy="43.5"
       id="radialGradient3015-1"
       xlink:href="#linearGradient3688-166-749"
       gradientUnits="userSpaceOnUse"
       gradientTransform="matrix(2.003784,0,0,0.89999994,-18.01187,-83.149997)" />
    <linearGradient
       xlink:href="#linearGradient873"
       id="linearGradient856-2"
       x1="23.528315"
       y1="6.08318"
       x2="23.528315"
       y2="44.23307"
       gradientUnits="userSpaceOnUse" />
    <linearGradient
       x1="38.999996"
       y1="5.9999938"
       x2="38.999996"
       y2="41.945408"
       id="linearGradient3058-5"
       xlink:href="#linearGradient1201"
       gradientUnits="userSpaceOnUse"
       gradientTransform="translate(4e-6,1.0000062)" />
    <linearGradient
       xlink:href="#linearGradient3702-501-757"
       id="linearGradient1191"
       gradientUnits="userSpaceOnUse"
       x1="25.058096"
       y1="47.027729"
       x2="25.058096"
       y2="39.999443"
       gradientTransform="matrix(1.1428571,0,0,0.6428571,-3.428569,16.035716)" />
    <linearGradient
       id="linearGradient873">
      <stop
         style="stop-color:#ed5353;stop-opacity:1"
         offset="0"
         id="stop869" />
      <stop
         style="stop-color:#c6262e;stop-opacity:1"
         offset="1"
         id="stop871" />
    </linearGradient>
  </defs>
  <metadata
     id="metadata6654">
    <rdf:RDF>
      <cc:Work
         rdf:about="">
        <dc:format>image/svg+xml</dc:format>
        <dc:type
           rdf:resource="http://purl.org/dc/dcmitype/StillImage" />
      </cc:Work>
    </rdf:RDF>
  </metadata>
  <rect
     style="opacity:0.6;fill:url(#radialGradient3013-6);fill-opacity:1;stroke:none;stroke-width:0.862764"
     id="rect2801-3-7"
     y="41.75"
     x="40"
     height="4.4999995"
     width="5" />
  <rect
     style="opacity:0.6;fill:url(#radialGradient3015-1);fill-opacity:1;stroke:none;stroke-width:0.862764"
     id="rect3696-6-3"
     transform="scale(-1)"
     y="-46.25"
     x="-8"
     height="4.4999995"
     width="5" />
  <rect
     style="opacity:0.6;fill:url(#linearGradient1191);fill-opacity:1;stroke:none;stroke-width:0.862764"
     id="rect3700-4-6"
     y="41.75"
     x="8"
     height="4.5"
     width="32" />
  <rect
     style="color:#000000;display:inline;overflow:visible;visibility:visible;opacity:1;fill:url(#linearGradient856-2);fill-opacity:1;fill-rule:nonzero;stroke:none;stroke-width:1;stroke-opacity:0.5;marker:none;enable-background:accumulate"
     id="rect5505-21-1"
     y="5.4999952"
     x="4.5000153"
     ry="4"
     rx="4"
     height="39"
     width="39" />
  <path
     id="path61-7-3"
     style="font-variation-settings:normal;opacity:0.15;vector-effect:none;fill:#a10705;fill-opacity:1;stroke:none;stroke-width:0.843237;stroke-linecap:butt;stroke-linejoin:miter;stroke-miterlimit:4;stroke-dasharray:none;stroke-dashoffset:0;stroke-opacity:1;-inkscape-stroke:none;marker:none;stop-color:#000000;stop-opacity:1"
     d="M 23.755859 13.630859 C 23.239736 13.614181 22.725402 13.640406 22.21875 13.701172 C 21.204107 13.822863 20.217913 14.086722 19.285156 14.439453 A 1.0283439 1.0283439 0 0 0 19.283203 14.439453 C 17.040798 15.290855 14.974009 16.710648 13.5 18.669922 C 12.020106 20.636589 11.186393 23.118952 11.380859 25.623047 C 11.508566 27.243323 12.058992 28.797872 12.898438 30.154297 C 13.60923 31.303949 14.56982 32.152174 15.472656 32.914062 A 1.0283439 1.0283439 0 0 0 16.638672 33.001953 C 16.478378 33.120436 16.428896 33.157323 16.269531 33.275391 C 16.025714 33.451315 15.9436 33.510534 15.699219 33.6875 C 15.498965 33.828612 15.434833 33.873957 15.234375 34.015625 C 14.99029 34.183424 14.908567 34.23951 14.664062 34.408203 C 14.42517 34.568696 14.346251 34.621554 14.109375 34.78125 C 13.909318 34.912403 13.845911 34.954816 13.646484 35.085938 C 13.405157 35.240239 13.325465 35.292315 13.083984 35.447266 C 12.871689 35.579636 12.802504 35.620894 12.589844 35.753906 C 12.331216 35.911247 12.244848 35.965162 11.986328 36.123047 C 11.786624 36.241447 11.723371 36.279551 11.523438 36.398438 C 11.252196 36.55513 11.160063 36.6082 10.888672 36.765625 C 10.681652 36.88221 10.614976 36.918349 10.408203 37.035156 C 10.172383 37.164437 10.094871 37.207247 9.8574219 37.337891 C 9.5698007 37.491398 9.471338 37.544053 9.1855469 37.697266 C 9.0010175 37.793213 8.9438761 37.823922 8.7597656 37.919922 C 7.3061822 38.654109 6.2731084 39.185159 7.5800781 38.539062 C 7.1411556 38.771029 7.4753344 38.60224 8.03125 38.320312 C 7.7768855 38.45878 8.0772281 38.302807 8.2128906 38.234375 C 8.2450486 38.222052 8.2764639 38.207705 8.3085938 38.195312 C 8.2711087 38.216557 8.341319 38.178247 8.3222656 38.189453 C 11.280063 37.047578 14.119545 35.613268 16.8125 33.939453 C 19.195356 35.482372 21.921663 36.354876 24.652344 36.705078 C 31.199495 37.542451 37.995295 35.945844 43.5 32.310547 L 43.5 23.957031 A 1.0283439 1.0283439 0 0 0 42.71875 24.248047 C 38.673243 28.711232 32.889092 31.601259 26.890625 32.158203 C 24.976542 32.335635 23.098294 32.124579 21.328125 31.642578 C 22.610195 31.027202 23.912969 30.451609 25.138672 29.730469 A 1.0283439 1.0283439 0 0 0 25.246094 29.658203 C 26.987409 28.312037 28.758039 26.76051 29.910156 24.669922 C 30.488491 23.621034 30.894615 22.449874 31.007812 21.212891 A 1.0283439 1.0283439 0 0 0 31.007812 21.210938 C 31.120131 19.968599 30.928231 18.677121 30.351562 17.519531 A 1.0283439 1.0283439 0 0 0 30.347656 17.511719 C 29.851941 16.53778 29.112729 15.688277 28.216797 15.0625 C 27.344979 14.454447 26.347997 14.027452 25.306641 13.814453 C 25.306641 13.814453 25.304688 13.814453 25.304688 13.814453 C 24.789897 13.707121 24.271983 13.647538 23.755859 13.630859 z M 23.199219 17.693359 C 23.428465 17.690884 23.65364 17.702015 23.875 17.730469 C 24.745094 17.842432 25.572182 18.23702 26.076172 18.832031 C 26.484892 19.315064 26.733321 19.981911 26.775391 20.666016 A 1.0283439 1.0283439 0 0 0 26.775391 20.667969 C 26.818851 21.359574 26.665129 22.095338 26.367188 22.783203 C 25.768337 24.167101 24.59827 25.362279 23.304688 26.513672 A 1.0283439 1.0283439 0 0 0 24.515625 28.140625 C 24.399641 28.222406 24.365936 28.246275 24.25 28.328125 C 24.060093 28.459638 24.001369 28.500389 23.810547 28.632812 C 23.625134 28.759034 23.569086 28.798095 23.384766 28.923828 C 23.223931 29.031421 23.175256 29.062947 23.015625 29.169922 C 22.843178 29.283257 22.792256 29.318938 22.621094 29.431641 C 22.513254 29.501225 22.481169 29.519995 22.373047 29.589844 C 22.148582 29.732035 22.077574 29.778342 21.851562 29.921875 C 21.680501 30.028334 21.628915 30.060061 21.458984 30.166016 C 21.279412 30.275774 21.224961 30.308901 21.046875 30.417969 C 20.912152 30.498798 20.872808 30.522684 20.738281 30.603516 C 20.549709 30.714492 20.491865 30.747834 20.302734 30.859375 C 20.054727 31.002606 19.974999 31.048962 19.732422 31.189453 C 19.694526 31.175607 19.655564 31.164396 19.615234 31.15625 C 19.60027 31.12777 19.470877 31.037281 19.207031 30.896484 L 19.179688 31.5 C 18.992058 31.602248 18.933917 31.632685 18.744141 31.736328 C 18.604126 31.811208 18.561625 31.832297 18.419922 31.908203 A 1.0283439 1.0283439 0 0 0 18.402344 30.248047 C 17.646226 29.722035 17.003584 29.352731 16.648438 28.910156 A 1.0283439 1.0283439 0 0 0 16.646484 28.908203 C 15.90599 27.987728 15.404141 26.873989 15.263672 25.738281 C 15.058994 24.085952 15.632437 22.307852 16.703125 20.955078 C 17.78203 19.591923 19.36029 18.597102 21.080078 18.058594 L 21.080078 18.060547 C 21.793198 17.838454 22.511481 17.700784 23.199219 17.693359 z M 19.474609 31.115234 C 19.483081 31.119351 19.48444 31.117478 19.492188 31.121094 C 19.486707 31.118807 19.479954 31.119788 19.474609 31.117188 A 1.0283439 1.0283439 0 0 0 19.474609 31.115234 z " />
  <path
     d="M 7.6820457,37.345909 A 49.573762,49.573762 0 0 0 24.617512,28.843904 c 1.703001,-1.316547 3.354002,-2.785548 4.392821,-4.670549 0.520001,-0.943092 0.875728,-1.983092 0.97382,-3.055003 0.09691,-1.07191 -0.07327,-2.175728 -0.553092,-3.138911 a 5.6585494,5.6585494 0 0 0 -1.802274,-2.074092 6.8013683,6.8013683 0 0 0 -2.53382,-1.08491 c -1.811729,-0.378181 -3.715639,-0.07564 -5.447004,0.579091 -2.082365,0.790637 -3.987457,2.109547 -5.326458,3.889367 -1.340183,1.781001 -2.087092,4.032366 -1.914547,6.254186 0.113455,1.439455 0.606274,2.842275 1.366183,4.070184 0.75991,1.229093 1.783365,2.28682 2.949821,3.138912 2.334092,1.704183 5.194094,2.565729 8.060005,2.933274 6.523641,0.834365 13.336827,-0.845 18.725925,-4.615002 l -0.02836,-6.131278 c -4.223823,4.659912 -10.231013,7.661733 -16.493472,8.243188 -2.70282,0.250546 -5.519094,0.04609 -7.960733,-1.141637 -1.220819,-0.593273 -2.331729,-1.430001 -3.181456,-2.488911 -0.85091,-1.057728 -1.434729,-2.340001 -1.601365,-3.687275 -0.243455,-1.965365 0.423091,-3.994548 1.652183,-5.547459 1.229092,-1.55291 2.986456,-2.646093 4.877367,-3.238184 1.043546,-0.325 2.148547,-0.507 3.233457,-0.367545 1.083728,0.139454 2.147365,0.622818 2.854093,1.457182 0.572,0.676001 0.886364,1.551729 0.940727,2.43573 0.05555,0.884 -0.138272,1.77391 -0.490454,2.587001 -0.703183,1.625001 -2.00082,2.912002 -3.323276,4.089094 A 55.336311,55.336311 0 0 1 7.6832278,37.345909 Z"
     style="stroke-width:0.843237;marker:none;font-variation-settings:normal;opacity:0.3;vector-effect:none;fill:#a10705;fill-opacity:1;stroke:none;stroke-linecap:butt;stroke-linejoin:miter;stroke-miterlimit:4;stroke-dasharray:none;stroke-dashoffset:0;stroke-opacity:1;-inkscape-stroke:none;stop-color:#000000;stop-opacity:1"
     color="#000000"
     overflow="visible"
     fill="#ffffff"
     id="path61-7" />
  <path
     d="M 7.6820457,36.345448 A 49.573762,49.573762 0 0 0 24.617512,27.843443 c 1.703001,-1.316547 3.354002,-2.785548 4.392821,-4.670549 0.520001,-0.943092 0.875728,-1.983092 0.97382,-3.055003 0.09691,-1.07191 -0.07327,-2.175728 -0.553092,-3.138911 a 5.6585494,5.6585494 0 0 0 -1.802274,-2.074092 6.8013683,6.8013683 0 0 0 -2.53382,-1.08491 c -1.811729,-0.378181 -3.715639,-0.07564 -5.447004,0.579091 -2.082365,0.790637 -3.987457,2.109547 -5.326458,3.889367 -1.340183,1.781001 -2.087092,4.032366 -1.914547,6.254186 0.113455,1.439455 0.606274,2.842275 1.366183,4.070184 0.75991,1.229093 1.783365,2.28682 2.949821,3.138912 2.334092,1.704183 5.194094,2.565729 8.060005,2.933274 6.523641,0.834365 13.336827,-0.845 18.725925,-4.615002 l -0.02836,-6.131278 c -4.223823,4.659912 -10.231013,7.661733 -16.493472,8.243188 -2.70282,0.250546 -5.519094,0.04609 -7.960733,-1.141637 -1.220819,-0.593273 -2.331729,-1.430001 -3.181456,-2.488911 -0.85091,-1.057728 -1.434729,-2.340001 -1.601365,-3.687275 -0.243455,-1.965365 0.423091,-3.994548 1.652183,-5.547459 1.229092,-1.55291 2.986456,-2.646093 4.877367,-3.238184 1.043546,-0.325 2.148547,-0.507 3.233457,-0.367545 1.083728,0.139454 2.147365,0.622818 2.854093,1.457182 0.572,0.676001 0.886364,1.551729 0.940727,2.43573 0.05555,0.884 -0.138272,1.77391 -0.490454,2.587001 -0.703183,1.625001 -2.00082,2.912002 -3.323276,4.089094 A 55.336311,55.336311 0 0 1 7.6832278,36.345448 Z"
     style="stroke-width:1.18182;marker:none"
     color="#000000"
     overflow="visible"
     fill="#ffffff"
     id="path61" />
  <path
     id="path61-6"
     style="stroke-width:0.843237;marker:none;font-variation-settings:normal;opacity:0.15;vector-effect:none;fill:#a10705;fill-opacity:1;stroke:none;stroke-linecap:butt;stroke-linejoin:miter;stroke-miterlimit:4;stroke-dasharray:none;stroke-dashoffset:0;stroke-opacity:1;-inkscape-stroke:none;stop-color:#000000;stop-opacity:1"
     d="M 23.189453 14.664062 C 22.372059 14.671652 21.556097 14.834375 20.773438 15.078125 C 18.882526 15.670216 17.125576 16.763496 15.896484 18.316406 C 14.738736 19.779177 14.089788 21.664936 14.220703 23.521484 C 14.338239 22.001752 14.946622 20.516521 15.896484 19.316406 C 17.125576 17.763496 18.882526 16.670216 20.773438 16.078125 C 21.816983 15.753125 22.920949 15.571483 24.005859 15.710938 C 25.089587 15.850392 26.1546 16.333605 26.861328 17.167969 C 27.386806 17.788989 27.69247 18.578968 27.78125 19.388672 C 27.806167 19.12803 27.81723 18.865269 27.800781 18.603516 C 27.746418 17.719515 27.433328 16.84397 26.861328 16.167969 C 26.1546 15.333605 25.089587 14.850392 24.005859 14.710938 C 23.734632 14.676074 23.461918 14.661533 23.189453 14.664062 z M 29.988281 19.052734 C 29.986517 19.074769 29.986365 19.097132 29.984375 19.119141 C 29.886283 20.191052 29.529767 21.230736 29.009766 22.173828 C 27.970947 24.058829 26.320189 25.527203 24.617188 26.84375 A 49.573762 49.573762 0 0 1 19.511719 30.261719 C 19.848836 30.405433 20.192539 30.53041 20.541016 30.640625 A 49.573762 49.573762 0 0 0 24.617188 27.84375 C 26.320189 26.527203 27.970947 25.058829 29.009766 23.173828 C 29.529767 22.230736 29.886283 21.189099 29.984375 20.117188 C 30.016365 19.763352 30.016029 19.407318 29.988281 19.052734 z M 12.404297 23.447266 C 12.384405 23.811945 12.377881 24.177665 12.40625 24.542969 C 12.519705 25.982424 13.013528 27.385372 13.773438 28.613281 C 14.367906 29.574786 15.12505 30.428707 15.984375 31.164062 A 55.336311 55.336311 0 0 0 16.691406 30.728516 C 15.538054 29.880441 14.526485 28.831274 13.773438 27.613281 C 13.013528 26.385372 12.519705 24.982424 12.40625 23.542969 C 12.403775 23.511103 12.406394 23.479142 12.404297 23.447266 z M 43.505859 29.074219 C 38.117459 32.842039 31.305053 34.519683 24.783203 33.685547 C 22.270853 33.363345 19.76233 32.660084 17.609375 31.34375 A 49.573762 49.573762 0 0 1 16.013672 32.144531 A 55.336311 55.336311 0 0 1 7.6894531 36.34375 A 49.573762 49.573762 0 0 0 17.609375 32.34375 C 19.762325 33.660075 22.270862 34.363346 24.783203 34.685547 C 31.306844 35.519912 38.120668 33.840315 43.509766 30.070312 L 43.505859 29.074219 z " />
  <rect
     style="color:#000000;display:inline;overflow:visible;visibility:visible;fill:none;fill-opacity:1;fill-rule:nonzero;stroke:#a10705;stroke-width:1;stroke-opacity:0.5;marker:none;enable-background:accumulate;font-variation-settings:normal;opacity:1;vector-effect:none;stroke-linecap:butt;stroke-linejoin:miter;stroke-miterlimit:4;stroke-dasharray:none;stroke-dashoffset:0;-inkscape-stroke:none;stop-color:#000000;stop-opacity:1"
     id="rect5505-21-1-1"
     y="5.4999952"
     x="4.5000153"
     ry="4"
     rx="4"
     height="39"
     width="39" />
  <rect
     style="opacity:0.35;fill:none;stroke:url(#linearGradient3058-5);stroke-width:1;stroke-linecap:round;stroke-linejoin:round;stroke-miterlimit:4;stroke-dasharray:none;stroke-dashoffset:0;stroke-opacity:1"
     id="rect6741-2"
     y="6.4999952"
     x="5.5000153"
     ry="3"
     rx="3"
     height="37"
     width="37" />
</svg>
