<?xml version="1.0" encoding="UTF-8" standalone="no"?>
<svg
   version="1.1"
   width="64"
   height="64"
   id="svg6333"
   sodipodi:docname="64.svg"
   inkscape:version="1.1.1 (3bf5ae0d25, 2021-09-20)"
   xmlns:inkscape="http://www.inkscape.org/namespaces/inkscape"
   xmlns:sodipodi="http://sodipodi.sourceforge.net/DTD/sodipodi-0.dtd"
   xmlns:xlink="http://www.w3.org/1999/xlink"
   xmlns="http://www.w3.org/2000/svg"
   xmlns:svg="http://www.w3.org/2000/svg"
   xmlns:rdf="http://www.w3.org/1999/02/22-rdf-syntax-ns#"
   xmlns:cc="http://creativecommons.org/ns#"
   xmlns:dc="http://purl.org/dc/elements/1.1/">
  <sodipodi:namedview
     id="namedview38"
     pagecolor="#ffffff"
     bordercolor="#666666"
     borderopacity="1.0"
     inkscape:pageshadow="2"
     inkscape:pageopacity="0.0"
     inkscape:pagecheckerboard="0"
     showgrid="false"
     inkscape:zoom="11.234375"
     inkscape:cx="31.955494"
     inkscape:cy="32"
     inkscape:window-width="2560"
     inkscape:window-height="1379"
     inkscape:window-x="0"
     inkscape:window-y="30"
     inkscape:window-maximized="1"
     inkscape:current-layer="svg6333" />
  <defs
     id="defs6335">
    <linearGradient
       x1="23.99999"
       y1="4.999989"
       x2="23.99999"
       y2="43"
       id="linearGradient3381-5-4"
       xlink:href="#linearGradient3924-2-2-5-8"
       gradientUnits="userSpaceOnUse"
       gradientTransform="matrix(1.4324324,0,0,1.4362832,-2.378381,-2.4707782)" />
    <linearGradient
       id="linearGradient3924-2-2-5-8">
      <stop
         id="stop3926-9-4-9-6"
         style="stop-color:#ffffff;stop-opacity:1"
         offset="0" />
      <stop
         id="stop3928-9-8-6-5"
         style="stop-color:#ffffff;stop-opacity:0.23529412"
         offset="0.06316455" />
      <stop
         id="stop3930-3-5-1-7"
         style="stop-color:#ffffff;stop-opacity:0.15686275"
         offset="0.95056331" />
      <stop
         id="stop3932-8-0-4-8"
         style="stop-color:#ffffff;stop-opacity:0.39215687"
         offset="1" />
    </linearGradient>
    <radialGradient
       cx="4.9929786"
       cy="43.5"
       r="2.5"
       fx="4.9929786"
       fy="43.5"
       id="radialGradient3337-2-2"
       xlink:href="#linearGradient3688-166-749-4-0-3-8"
       gradientUnits="userSpaceOnUse"
       gradientTransform="matrix(2.4045407,0,0,0.99999998,41.985755,15.500001)" />
    <linearGradient
       id="linearGradient3688-166-749-4-0-3-8">
      <stop
         id="stop2883-4-0-1-8"
         style="stop-color:#181818;stop-opacity:1"
         offset="0" />
      <stop
         id="stop2885-9-2-9-6"
         style="stop-color:#181818;stop-opacity:0"
         offset="1" />
    </linearGradient>
    <radialGradient
       cx="4.9929786"
       cy="43.5"
       r="2.5"
       fx="4.9929786"
       fy="43.5"
       id="radialGradient3339-1-4"
       xlink:href="#linearGradient3688-464-309-9-2-4-2"
       gradientUnits="userSpaceOnUse"
       gradientTransform="matrix(2.4045407,0,0,0.99999998,-22.014244,-102.5)" />
    <linearGradient
       id="linearGradient3688-464-309-9-2-4-2">
      <stop
         id="stop2889-7-9-6-9"
         style="stop-color:#181818;stop-opacity:1"
         offset="0" />
      <stop
         id="stop2891-6-6-1-7"
         style="stop-color:#181818;stop-opacity:0"
         offset="1" />
    </linearGradient>
    <linearGradient
       id="linearGradient3702-501-757-8-4-1-1">
      <stop
         id="stop2895-8-9-9-1"
         style="stop-color:#181818;stop-opacity:0"
         offset="0" />
      <stop
         id="stop2897-7-8-7-7"
         style="stop-color:#181818;stop-opacity:1"
         offset="0.5" />
      <stop
         id="stop2899-4-5-1-5"
         style="stop-color:#181818;stop-opacity:0"
         offset="1" />
    </linearGradient>
    <linearGradient
       x1="25.058096"
       y1="47.027729"
       x2="25.058096"
       y2="39.999443"
       id="linearGradient6394"
       xlink:href="#linearGradient3702-501-757-8-4-1-1"
       gradientUnits="userSpaceOnUse"
       gradientTransform="matrix(1.5714286,0,0,0.7142857,-5.7142853,27.928572)" />
    <linearGradient
       xlink:href="#linearGradient947"
       id="linearGradient856-2-3"
       x1="23.528315"
       y1="6.08318"
       x2="23.528315"
       y2="44.23307"
       gradientUnits="userSpaceOnUse"
       gradientTransform="matrix(1.4102564,0,0,1.4102564,-1.8461748,-3.2564048)" />
    <linearGradient
       id="linearGradient947">
      <stop
         offset="0"
         style="stop-color:#ed5353;stop-opacity:1"
         id="stop943" />
      <stop
         offset="1"
         style="stop-color:#c6262e;stop-opacity:1"
         id="stop945" />
    </linearGradient>
  </defs>
  <metadata
     id="metadata6338">
    <rdf:RDF>
      <cc:Work
         rdf:about="">
        <dc:format>image/svg+xml</dc:format>
        <dc:type
           rdf:resource="http://purl.org/dc/dcmitype/StillImage" />
      </cc:Work>
    </rdf:RDF>
  </metadata>
  <rect
     style="opacity:0.6;fill:url(#radialGradient3337-2-2);fill-opacity:1;stroke:none;stroke-width:1.06199"
     id="rect2801-5-5-7-9"
     y="56.5"
     x="54"
     height="5"
     width="6" />
  <rect
     style="opacity:0.6;fill:url(#radialGradient3339-1-4);fill-opacity:1;stroke:none;stroke-width:1.06199"
     id="rect3696-3-0-3-7"
     transform="scale(-1)"
     y="-61.5"
     x="-10"
     height="5"
     width="6" />
  <rect
     style="opacity:0.6;fill:url(#linearGradient6394);fill-opacity:1;stroke:none;stroke-width:1.06199"
     id="rect3700-5-6-8-4"
     y="56.5"
     x="10"
     height="5.0000005"
     width="44" />
  <rect
     style="color:#000000;display:inline;overflow:visible;visibility:visible;opacity:1;fill:url(#linearGradient856-2-3);fill-opacity:1;fill-rule:nonzero;stroke:none;stroke-width:1;stroke-opacity:0.5;marker:none;enable-background:accumulate;font-variation-settings:normal;vector-effect:none;stroke-linecap:butt;stroke-linejoin:miter;stroke-miterlimit:4;stroke-dasharray:none;stroke-dashoffset:0;-inkscape-stroke:none;stop-color:#000000;stop-opacity:1"
     id="rect5505-21-1-5"
     y="4.5000019"
     x="4.4999986"
     ry="6"
     rx="6"
     height="55"
     width="55" />
  <path
     id="path61-2-0"
     style="font-variation-settings:normal;opacity:0.15;vector-effect:none;fill:#a10705;fill-opacity:1;stroke:none;stroke-width:0.843237;stroke-linecap:butt;stroke-linejoin:miter;stroke-miterlimit:4;stroke-dasharray:none;stroke-dashoffset:0;stroke-opacity:1;-inkscape-stroke:none;marker:none;stop-color:#000000"
     d="m 32.28125,15.4375 c -0.70791,-0.02183 -1.413525,0.01396 -2.111328,0.09766 -1.398479,0.167728 -2.765141,0.52845 -4.058594,1.017578 a 1.1066129,1.1066129 0 0 0 -0.002,0 c -3.108927,1.180404 -5.970267,3.150372 -8.003906,5.853516 -2.040729,2.711972 -3.18484,6.135825 -2.917969,9.572265 a 1.1066129,1.1066129 0 0 0 0,0.002 c 0.175272,2.223754 0.930258,4.3638 2.087891,6.234375 1.143999,1.850328 2.671449,3.419607 4.392578,4.6875 a 1.1066129,1.1066129 0 0 0 1.113281,0.08008 c -0.308029,0.193139 -0.407214,0.256209 -0.710938,0.447266 -0.287119,0.175438 -0.379349,0.230557 -0.666015,0.40625 -0.357027,0.212381 -0.476097,0.284333 -0.833985,0.498047 -0.315563,0.183016 -0.418369,0.241887 -0.734375,0.425781 -0.372413,0.210187 -0.497205,0.281415 -0.86914,0.492188 -0.334312,0.183812 -0.443155,0.244397 -0.775391,0.427734 -0.323561,0.173054 -0.428725,0.228852 -0.751953,0.402344 -0.345876,0.179886 -0.460055,0.23897 -0.806641,0.419922 -0.362066,0.183108 -0.482018,0.244047 -0.84375,0.427734 -0.36249,0.178173 -0.481616,0.238247 -0.841797,0.416016 -0.315606,0.150687 -0.417349,0.198633 -0.732421,0.349609 -0.348736,0.161555 -0.463974,0.213926 -0.814453,0.376953 -0.367312,0.165037 -0.488979,0.220448 -0.857422,0.386719 -0.387514,0.168912 -0.516902,0.225734 -0.902344,0.394531 -0.324446,0.137074 -0.428711,0.181255 -0.751953,0.31836 -2.1812889,0.891415 -3.7261263,1.53607 -1.7109378,0.732422 -0.6350414,0.2737 -0.1178767,0.0626 0.765625,-0.300782 -0.3974552,0.177011 0.0072,0.0044 0.2050778,-0.07617 4.69371,-1.3806 9.234121,-3.266092 13.544922,-5.580078 3.049677,1.759585 6.430104,2.899396 9.910156,3.345703 9.2192,1.179124 18.799817,-1.096347 26.523438,-6.259765 V 29.982421 a 1.1066129,1.1066129 0 0 0 -0.835938,0.316407 C 53.526129,36.658912 45.297463,40.770839 36.75,41.564453 34.047549,41.814964 31.36732,41.50081 28.830078,40.792968 30.6351,39.72275 32.453041,38.6711 34.15625,37.445312 a 1.1066129,1.1066129 0 0 0 0.0293,-0.02344 c 2.442452,-1.888197 4.901275,-4.046802 6.488281,-6.925782 v -0.002 c 0.796015,-1.444114 1.35139,-3.052243 1.505859,-4.740234 a 1.1066129,1.1066129 0 0 0 0,-0.002 C 42.33292,24.057041 42.069853,22.29782 41.289062,20.730468 a 1.1066129,1.1066129 0 0 0 -0.0039,-0.0078 C 40.612173,19.398785 39.609695,18.24551 38.392578,17.394531 a 1.1066129,1.1066129 0 0 0 -0.002,-0.002 C 37.196483,16.559974 35.830839,15.975684 34.404297,15.685547 33.699364,15.538775 32.98916,15.459327 32.28125,15.4375 Z m -0.775391,5.041015 c 0.338114,-0.0034 0.673116,0.01437 1.001953,0.05664 1.298394,0.167078 2.543422,0.75237 3.322266,1.671875 0.63114,0.745893 1.003014,1.758244 1.066406,2.789062 a 1.1066129,1.1066129 0 0 0 0,0.002 c 0.06533,1.03964 -0.165099,2.126488 -0.603515,3.138671 -0.879053,2.031427 -2.573594,3.745958 -4.408204,5.378907 a 1.1068214,1.1068214 0 0 0 1.361329,1.708984 c -0.151777,0.127961 -0.195984,0.164945 -0.347657,0.292969 -0.230913,0.191445 -0.300796,0.250327 -0.533203,0.443359 -0.245965,0.200664 -0.320887,0.262207 -0.566406,0.462891 -0.165866,0.13308 -0.214777,0.171263 -0.380859,0.304687 -0.246393,0.194389 -0.322518,0.253348 -0.570313,0.449219 -0.277156,0.215082 -0.362401,0.282758 -0.636719,0.496094 -0.150627,0.115057 -0.193733,0.148949 -0.34375,0.263672 -0.204702,0.153529 -0.266554,0.198692 -0.472656,0.353515 -0.281195,0.207489 -0.368767,0.272211 -0.65039,0.480469 -0.220158,0.159743 -0.285174,0.208212 -0.503907,0.367187 -0.180396,0.128654 -0.233509,0.165981 -0.414062,0.294922 -0.254421,0.178381 -0.332343,0.232588 -0.587891,0.41211 -0.227983,0.157266 -0.319412,0.221227 -0.539062,0.373047 -0.04429,-0.01173 -0.09113,-0.01662 -0.132813,-0.03516 l 0.0039,0.125 c -0.04001,0.02767 -0.06037,0.04317 -0.09961,0.07031 -0.355683,0.236464 -0.47659,0.315104 -0.841797,0.558594 -0.164038,0.107225 -0.212075,0.138183 -0.376953,0.246093 a 1.1066129,1.1066129 0 0 0 -0.15625,-1.757812 c -1.201246,-0.724964 -2.277873,-1.557492 -3.09375,-2.574219 a 1.1066129,1.1066129 0 0 0 -0.002,0 c -1.081197,-1.343987 -1.814612,-2.969993 -2.021485,-4.642578 -0.301614,-2.434879 0.536648,-5.025257 2.09961,-7 1.571419,-1.985428 3.85599,-3.419792 6.33789,-4.197266 1.028634,-0.320355 2.075503,-0.523057 3.089844,-0.533203 z" />
  <path
     d="M 9,49 A 69.911715,69.911715 0 0 0 32.88335,37.009992 c 2.401668,-1.856668 4.730003,-3.928336 6.195004,-6.586671 0.733334,-1.330001 1.235001,-2.796669 1.373335,-4.308337 0.136666,-1.511668 -0.103334,-3.068335 -0.780001,-4.42667 A 7.9800055,7.9800055 0 0 0 37.13002,18.763312 9.5916733,9.5916733 0 0 0 33.556684,17.233311 c -2.555002,-0.533333 -5.240004,-0.106667 -7.681672,0.816667 -2.936669,1.115001 -5.623337,2.975002 -7.511672,5.485005 -1.890002,2.511668 -2.943335,5.68667 -2.700002,8.820005 0.16,2.030001 0.855001,4.008337 1.926668,5.740004 1.071668,1.733336 2.515002,3.225002 4.160004,4.426671 3.291668,2.403334 7.325004,3.618335 11.366674,4.136668 9.200006,1.176668 18.808346,-1.191667 26.408356,-6.508337 l -0.04,-8.646673 c -5.956673,6.571671 -14.428351,10.805007 -23.260024,11.625009 -3.811669,0.353333 -7.783338,0.065 -11.226675,-1.610002 -1.721667,-0.836667 -3.288335,-2.016668 -4.486669,-3.510002 -1.200001,-1.491668 -2.023335,-3.300002 -2.258335,-5.200004 -0.343334,-2.771668 0.596667,-5.633337 2.330002,-7.823339 1.733334,-2.190001 4.211669,-3.731669 6.878338,-4.56667 1.471668,-0.458333 3.030002,-0.715 4.560003,-0.518333 1.528334,0.196667 3.028336,0.878334 4.025003,2.055001 0.806667,0.953334 1.250001,2.188336 1.326667,3.435003 0.07834,1.246667 -0.195,2.501669 -0.691667,3.648336 -0.991667,2.291668 -2.821669,4.106669 -4.68667,5.76667 A 78.038387,78.038387 0 0 1 9.0016667,49 Z"
     style="stroke-width:0.843237;marker:none;font-variation-settings:normal;opacity:0.3;vector-effect:none;fill:#a10705;fill-opacity:1;stroke:none;stroke-linecap:butt;stroke-linejoin:miter;stroke-miterlimit:4;stroke-dasharray:none;stroke-dashoffset:0;stroke-opacity:1;-inkscape-stroke:none;stop-color:#000000;stop-opacity:1"
     color="#000000"
     overflow="visible"
     fill="#ffffff"
     id="path61-2" />
  <path
     d="M 9,48 A 69.911715,69.911715 0 0 0 32.88335,36.009992 c 2.401668,-1.856668 4.730003,-3.928336 6.195004,-6.586671 0.733334,-1.330001 1.235001,-2.796669 1.373335,-4.308337 0.136666,-1.511668 -0.103334,-3.068335 -0.780001,-4.42667 A 7.9800055,7.9800055 0 0 0 37.13002,17.763312 9.5916733,9.5916733 0 0 0 33.556684,16.233311 c -2.555002,-0.533333 -5.240004,-0.106667 -7.681672,0.816667 -2.936669,1.115001 -5.623337,2.975002 -7.511672,5.485005 -1.890002,2.511668 -2.943335,5.68667 -2.700002,8.820005 0.16,2.030001 0.855001,4.008337 1.926668,5.740004 1.071668,1.733336 2.515002,3.225002 4.160004,4.426671 3.291668,2.403334 7.325004,3.618335 11.366674,4.136668 9.200006,1.176668 18.808346,-1.191667 26.408356,-6.508337 l -0.04,-8.646673 c -5.956673,6.571671 -14.428351,10.805007 -23.260024,11.625009 -3.811669,0.353333 -7.783338,0.065 -11.226675,-1.610002 -1.721667,-0.836667 -3.288335,-2.016668 -4.486669,-3.510002 -1.200001,-1.491668 -2.023335,-3.300002 -2.258335,-5.200004 -0.343334,-2.771668 0.596667,-5.633337 2.330002,-7.823339 1.733334,-2.190001 4.211669,-3.731669 6.878338,-4.56667 1.471668,-0.458333 3.030002,-0.715 4.560003,-0.518333 1.528334,0.196667 3.028336,0.878334 4.025003,2.055001 0.806667,0.953334 1.250001,2.188336 1.326667,3.435003 0.07834,1.246667 -0.195,2.501669 -0.691667,3.648336 -0.991667,2.291668 -2.821669,4.106669 -4.68667,5.76667 A 78.038387,78.038387 0 0 1 9.0016667,48 Z"
     style="stroke-width:1.66667;marker:none"
     color="#000000"
     overflow="visible"
     fill="#ffffff"
     id="path61" />
  <path
     id="path61-26"
     style="stroke-width:0.843237;marker:none;font-variation-settings:normal;opacity:0.15;vector-effect:none;fill:#a10705;fill-opacity:1;stroke:none;stroke-linecap:butt;stroke-linejoin:miter;stroke-miterlimit:4;stroke-dasharray:none;stroke-dashoffset:0;stroke-opacity:1;-inkscape-stroke:none;stop-color:#000000;stop-opacity:1"
     d="M 30.871094 17.833984 C 29.718359 17.844687 28.564689 18.074219 27.460938 18.417969 C 24.794269 19.25297 22.317318 20.794374 20.583984 22.984375 C 18.986181 25.003138 18.074733 27.59262 18.208984 30.15625 C 18.326093 27.929214 19.194138 25.740393 20.583984 23.984375 C 22.317318 21.794374 24.794269 20.25297 27.460938 19.417969 C 28.932606 18.959636 30.491483 18.703724 32.021484 18.900391 C 33.549818 19.097058 35.050208 19.778411 36.046875 20.955078 C 36.841299 21.893943 37.280724 23.106649 37.367188 24.333984 C 37.390223 24.019827 37.39284 23.7056 37.373047 23.390625 C 37.296381 22.143958 36.853542 20.908412 36.046875 19.955078 C 35.050208 18.778411 33.549818 18.097058 32.021484 17.900391 C 31.638984 17.851224 31.255339 17.830417 30.871094 17.833984 z M 40.470703 23.794922 C 40.464835 23.901791 40.460801 24.008726 40.451172 24.115234 C 40.312838 25.626902 39.811459 27.093827 39.078125 28.423828 C 37.613124 31.082163 35.284481 33.153098 32.882812 35.009766 A 69.911715 69.911715 0 0 1 25.683594 39.830078 C 26.017915 39.972595 26.356725 40.099866 26.699219 40.21875 A 69.911715 69.911715 0 0 0 32.882812 36.009766 C 35.284481 34.153098 37.613124 32.082163 39.078125 29.423828 C 39.811459 28.093827 40.312838 26.626902 40.451172 25.115234 C 40.490796 24.676946 40.495869 24.234845 40.470703 23.794922 z M 15.652344 29.908203 C 15.630015 30.39001 15.626599 30.873064 15.664062 31.355469 C 15.824063 33.38547 16.518177 35.364036 17.589844 37.095703 C 18.492299 38.555351 19.660219 39.839701 20.988281 40.927734 A 78.038387 78.038387 0 0 0 21.705078 40.486328 C 20.07915 39.290509 18.651522 37.812881 17.589844 36.095703 C 16.518177 34.364036 15.824063 32.38547 15.664062 30.355469 C 15.652492 30.206481 15.6581 30.057304 15.652344 29.908203 z M 59.521484 38.154297 C 51.922172 43.468785 42.315403 45.834642 33.117188 44.658203 C 29.573182 44.203694 26.034809 43.21475 22.998047 41.357422 A 69.911715 69.911715 0 0 1 17.460938 43.984375 A 78.038387 78.038387 0 0 1 9.0078125 47.998047 A 69.911715 69.911715 0 0 0 22.998047 42.357422 C 26.034809 44.21475 29.573182 45.203694 33.117188 45.658203 C 42.317194 46.834871 51.925381 44.467061 59.525391 39.150391 L 59.521484 38.154297 z " />
  <rect
     style="color:#000000;font-variation-settings:normal;display:inline;overflow:visible;visibility:visible;vector-effect:none;fill:none;fill-opacity:1;fill-rule:nonzero;stroke:#a10705;stroke-width:1;stroke-linecap:butt;stroke-linejoin:miter;stroke-miterlimit:4;stroke-dasharray:none;stroke-dashoffset:0;stroke-opacity:0.5;-inkscape-stroke:none;marker:none;enable-background:accumulate;stop-color:#000000"
     id="rect5505-21-1-5-1"
     y="4.5000019"
     x="4.4999986"
     ry="6"
     rx="6"
     height="55"
     width="55" />
  <rect
     style="opacity:0.35;fill:none;stroke:url(#linearGradient3381-5-4);stroke-width:1;stroke-linecap:round;stroke-linejoin:round;stroke-miterlimit:4;stroke-dasharray:none;stroke-dashoffset:0;stroke-opacity:1"
     id="rect6741-5-0-2-3"
     y="5.4287739"
     x="5.4999986"
     ry="5"
     height="53.142479"
     width="53"
     rx="5" />
</svg>
